HIERARCHY
ROOT Hips
{
	OFFSET 0.0000 0.0000 0.0000
	CHANNELS 6 Xposition Yposition Zposition Zrotation Xrotation Yrotation
	JOINT Ab
	{
		OFFSET -0.0000 8.0846 -0.0000
		CHANNELS 3 Zrotation Xrotation Yrotation
		JOINT Chest
		{
			OFFSET -0.0000 25.0068 -0.0000
			CHANNELS 3 Zrotation Xrotation Yrotation
			JOINT Neck
			{
				OFFSET -0.0000 25.0068 0.0000
				CHANNELS 3 Zrotation Xrotation Yrotation
				JOINT Head
				{
					OFFSET -0.0000 10.7556 0.0000
					CHANNELS 3 Zrotation Xrotation Yrotation
					End Site
					{
						OFFSET -0.0000 16.6222 0.0000
					}
				}
			}
			JOINT LeftCollar
			{
				OFFSET -0.0000 25.0068 0.0000
				CHANNELS 3 Zrotation Xrotation Yrotation
				JOINT LeftShoulder
				{
					OFFSET 19.5556 -0.0000 0.0000
					CHANNELS 3 Zrotation Xrotation Yrotation
					JOINT LeftElbow
					{
						OFFSET 27.1828 0.0000 0.0000
						CHANNELS 3 Zrotation Xrotation Yrotation
						JOINT LeftWrist
						{
							OFFSET 23.3157 0.0000 0.0000
							CHANNELS 3 Zrotation Xrotation Yrotation
							End Site
							{
								OFFSET 0.0000 -14.6667 0.0000
							}
						}
					}
				}
			}
			JOINT RightCollar
			{
				OFFSET -0.0000 25.0068 0.0000
				CHANNELS 3 Zrotation Xrotation Yrotation
				JOINT RightShoulder
				{
					OFFSET -19.5556 0.0000 0.0000
					CHANNELS 3 Zrotation Xrotation Yrotation
					JOINT RightElbow
					{
						OFFSET -27.1828 0.0000 0.0000
						CHANNELS 3 Zrotation Xrotation Yrotation
						JOINT RightWrist
						{
							OFFSET -23.3157 0.0000 0.0000
							CHANNELS 3 Zrotation Xrotation Yrotation
							End Site
							{
								OFFSET -0.0000 -14.6667 0.0000
							}
						}
					}
				}
			}
		}
	}
	JOINT LeftHip
	{
		OFFSET 11.7333 0.0000 0.0000
		CHANNELS 3 Zrotation Xrotation Yrotation
		JOINT LeftKnee
		{
			OFFSET -0.0000 -40.8688 0.0000
			CHANNELS 3 Zrotation Xrotation Yrotation
			JOINT LeftAnkle
			{
				OFFSET -0.0000 -44.4337 0.0000
				CHANNELS 3 Zrotation Xrotation Yrotation
				End Site
				{
					OFFSET -0.0000 -4.8889 16.6222
				}
			}
		}
	}
	JOINT RightHip
	{
		OFFSET -11.7333 0.0000 0.0000
		CHANNELS 3 Zrotation Xrotation Yrotation
		JOINT RightKnee
		{
			OFFSET -0.0000 -40.8688 0.0000
			CHANNELS 3 Zrotation Xrotation Yrotation
			JOINT RightAnkle
			{
				OFFSET -0.0000 -44.4337 0.0000
				CHANNELS 3 Zrotation Xrotation Yrotation
				End Site
				{
					OFFSET -0.0000 -4.8889 16.6222
				}
			}
		}
	}
}
MOTION
Frames: 7
Frame Time: 0.010000
-3.1594 88.7882 190.7034 2.5275 358.8789 174.6287 2.1580 358.5110 358.4140 358.8448 12.4736 358.5121 2.8473 340.7811 1.9665 1.6511 4.6220 1.4147 339.1184 358.4945 8.1811 300.9894 31.0004 354.2006 17.3088 354.0882 322.4912 80.7189 1.0537 339.5886 22.1835 359.1625 355.7318 59.4720 41.6501 8.2372 338.0759 354.0989 29.8785 277.9788 352.5888 22.5756 2.1483 357.7211 358.5640 359.0240 10.4809 359.4335 357.0140 351.4661 21.9626 2.3393 351.9937 359.6344 359.1831 17.8851 9.4712 355.3120 345.7581 338.0343 
-3.1673 88.7887 190.6921 2.5249 358.9002 174.6180 2.1599 358.5310 358.4157 358.8384 12.4798 358.5148 2.8278 340.7607 1.9612 1.6632 4.6931 1.4124 339.1203 358.4752 8.1981 300.9862 31.0860 354.2036 17.3821 354.0623 322.4584 80.6590 1.0300 339.5816 22.1840 359.1704 355.7373 59.4686 41.6291 8.2393 338.1115 354.0936 29.8931 277.9470 352.6259 22.6041 2.1356 357.7598 358.5520 359.0271 10.4661 359.4539 357.0049 351.4647 21.9537 2.3272 352.0235 359.6588 359.1921 17.8885 9.4724 355.3144 345.7426 338.0127 
-3.1734 88.7889 190.6909 2.5238 358.8925 174.6136 2.1653 358.5354 358.4096 358.8344 12.4745 358.5087 2.7963 340.7410 1.9433 1.6761 4.7627 1.3981 339.1152 358.4838 8.2560 301.0343 31.3232 354.1351 17.4859 354.0292 322.5324 80.6242 0.9824 339.6970 22.1857 359.1611 355.7324 59.4507 41.6505 8.2553 338.0821 354.0898 29.9030 277.9852 352.6128 22.5938 2.1344 357.7498 358.5598 359.0182 10.4751 359.4273 356.9691 351.4428 21.9831 2.3266 352.0114 359.6519 359.1814 17.8947 9.4836 355.3228 345.7425 338.0143 
-3.1807 88.7891 190.6874 2.5259 358.8963 174.6079 2.1753 358.5572 358.4050 358.8297 12.4589 358.5064 2.7306 340.7261 1.9139 1.7325 4.8250 1.3779 339.1049 358.4756 8.2805 301.0536 31.4220 354.1228 17.5284 354.0251 322.5169 80.6562 0.9940 339.7719 22.1891 359.1661 355.7319 59.4356 41.6521 8.2610 338.1021 354.0714 29.9125 277.9648 352.6418 22.5972 2.1293 357.7633 358.5700 359.0217 10.4628 359.4433 357.0113 351.4563 21.9690 2.3226 352.0158 359.6795 359.1934 17.8945 9.4653 355.3152 345.7378 338.0020 
-3.1888 88.7894 190.6825 2.5266 358.9045 174.6069 2.1810 358.5785 358.4051 358.8257 12.4483 358.5069 2.6826 340.7077 1.8881 1.7628 4.8956 1.3528 339.0949 358.4847 8.2988 301.0879 31.5427 354.1003 17.5455 354.0383 322.5739 80.7282 0.8920 339.8533 22.1900 359.1553 355.7266 59.4399 41.6585 8.2510 338.0855 354.0610 29.9411 277.9740 352.6710 22.5985 2.1226 357.7812 358.5673 359.0258 10.4491 359.4328 357.0717 351.4772 21.9860 2.3171 352.0252 359.6715 359.1893 17.8978 9.4745 355.3411 345.7236 338.0114 
-3.1949 88.7910 190.6849 2.5268 358.8896 174.6125 2.1827 358.5770 358.3989 358.8325 12.4493 358.5001 2.6219 340.6809 1.8597 1.8052 4.9541 1.3232 339.0945 358.4572 8.3088 301.0810 31.6293 354.0931 17.6294 353.9770 322.5295 80.6784 0.9226 339.9009 22.1902 359.1673 355.7151 59.4146 41.6423 8.2824 338.1142 354.0820 29.9203 277.9742 352.6200 22.6129 2.1198 357.7550 358.5561 359.0255 10.4642 359.4460 357.0414 351.4585 21.9772 2.3151 352.0050 359.6821 359.1919 17.9106 9.4431 355.3586 345.7166 338.0309 
-3.2007 88.7912 190.6784 2.5241 358.9002 174.6073 2.1829 358.5880 358.3978 358.8277 12.4583 358.4997 2.6102 340.6694 1.8609 1.8299 5.0058 1.3320 339.0944 358.4769 8.3030 301.0811 31.5930 354.0917 17.5523 354.0141 322.5468 80.7033 0.8710 339.8254 22.1838 359.1501 355.7354 59.4611 41.6578 8.2409 338.0336 354.0565 29.9540 277.9962 352.6651 22.6125 2.1140 357.7847 358.5767 359.0237 10.4384 359.4217 357.0650 351.4724 21.9915 2.3086 352.0201 359.6866 359.1910 17.9036 9.4664 355.3378 345.7171 338.0052 
